Force Data File
version=1
nRows=53
nColumns=13
Range=1.000000e-02-10 seconds
endheader
time 	Force_r_vx 	Force_r_vy 	Force_r_vz 	Force_r_px 	Force_r_py 	Force_r_pz 	Force_l_vx 	Force_l_vy 	Force_l_vz 	Force_l_px 	Force_l_py 	Force_l_pz 		
2.510000 33.877114 258.317654 -3.927367 0.483994 0.396992 -0.096210 521.884472 3766.263092 -57.260877 0.195424 0.207989 -0.334944
2.520000 29.128087 257.141088 -3.907169 0.489108 0.386166 -0.096228 773.105641 3722.931986 -56.568658 0.190817 0.218198 -0.334915
2.530000 23.066986 258.125325 -3.928094 0.493356 0.374794 -0.096219 1023.893884 3661.819933 -55.724758 0.187045 0.228767 -0.334976
2.540000 19.864248 260.045120 -3.953385 0.496892 0.363040 -0.095813 1274.524344 3582.451465 -54.462893 0.184231 0.239722 -0.334931
2.550000 17.895981 263.380542 -4.001021 0.499759 0.350934 -0.095669 1522.418340 3484.420403 -52.931930 0.182297 0.250796 -0.334935
2.560000 16.441917 269.512981 -4.105851 0.501744 0.338697 -0.095325 1762.480129 3369.496074 -51.332027 0.181220 0.261760 -0.334928
2.570000 16.365421 277.684399 -4.227567 0.502955 0.326188 -0.094790 2001.321108 3233.522029 -49.228297 0.181060 0.273149 -0.334948
2.580000 17.051748 286.516475 -4.397131 0.503468 0.313462 -0.095562 2232.929384 3077.979733 -47.237351 0.181718 0.284438 -0.334930
2.590000 17.128071 297.107009 -4.551513 0.503201 0.300817 -0.095587 2454.034680 2904.737609 -44.498955 0.183231 0.295662 -0.334953
2.600000 17.134953 309.639260 -4.741454 0.501981 0.288273 -0.095453 2664.864268 2712.705194 -41.539196 0.185554 0.306942 -0.334995
2.610000 18.609693 322.552129 -4.947867 0.500054 0.275688 -0.095288 2864.542925 2500.507159 -38.357139 0.188461 0.318209 -0.334909
2.620000 19.830466 337.297090 -5.178730 0.497289 0.263272 -0.095289 3049.675043 2271.304671 -34.872738 0.192261 0.329259 -0.334982
2.630000 18.147767 357.622011 -5.496665 0.493657 0.250967 -0.095291 3219.308349 2023.627381 -31.103235 0.196642 0.340271 -0.334974
2.640000 26.167045 376.265310 -5.804514 0.489227 0.238912 -0.095218 3371.211914 1758.944711 -27.134629 0.201854 0.351158 -0.335107
2.650000 33.055336 396.767203 -6.153011 0.484012 0.227102 -0.095385 3504.074465 1476.270691 -22.893802 0.207596 0.362168 -0.335111
2.660000 38.130701 421.452855 -6.519049 0.477899 0.215735 -0.095411 3613.779744 1181.566530 -18.276517 0.214003 0.372907 -0.335086
2.670000 44.674986 449.473527 -6.957488 0.471135 0.204801 -0.095375 3698.511694 880.260248 -13.625719 0.220880 0.383291 -0.334932
2.680000 52.294026 476.165943 -7.388849 0.463559 0.194435 -0.095370 3758.852989 570.354899 -8.850415 0.228510 0.393467 -0.334928
2.690000 59.668608 499.979309 -7.780435 0.455363 0.184626 -0.095360 3792.766489 257.373044 -4.005114 0.236758 0.403252 -0.334925
2.700000 66.180305 521.071311 -8.072996 0.446553 0.175430 -0.095309 3801.133066 -54.220348 0.840040 0.245381 0.412620 -0.334858
2.710000 73.855482 539.388958 -8.345911 0.437201 0.167109 -0.095261 3784.555491 -358.771499 5.551235 0.254498 0.421329 -0.334775
2.720000 86.399947 541.634917 -8.397055 0.427381 0.159302 -0.095195 3744.283032 -657.896350 10.199475 0.264129 0.429379 -0.334843
2.730000 96.423200 537.900220 -8.328968 0.417163 0.152412 -0.095163 3681.577958 -947.676114 14.674030 0.274162 0.436982 -0.334773
2.740000 103.975420 525.498602 -8.160901 0.406621 0.146359 -0.094989 3598.279705 -1226.398657 19.045755 0.284642 0.443895 -0.334954
2.750000 108.590785 501.872758 -7.782404 0.395776 0.141120 -0.094976 3496.315643 -1492.529699 23.144252 0.295447 0.449999 -0.334985
2.760000 109.938944 470.901818 -7.291642 0.384431 0.136816 -0.094650 3377.225766 -1745.491386 27.027923 0.306318 0.455258 -0.335094
2.770000 107.793761 433.274839 -6.670085 0.373154 0.133398 -0.094527 3244.946106 -1980.345265 30.486587 0.317270 0.459749 -0.335120
2.780000 101.396918 391.379615 -6.017791 0.361757 0.130769 -0.094414 3098.441273 -2202.617403 33.867097 0.328548 0.463407 -0.336224
2.790000 94.963095 351.310811 -5.394252 0.350176 0.129027 -0.094265 2938.479321 -2411.797505 37.032286 0.339945 0.466268 -0.335723
2.800000 87.881993 314.749503 -4.817600 0.338529 0.128203 -0.094145 2769.009337 -2604.368050 39.862819 0.351144 0.468130 -0.335586
2.810000 80.513830 281.967152 -4.319702 0.327073 0.128285 -0.094286 2590.431142 -2781.949010 42.619115 0.362413 0.469042 -0.335680
2.820000 74.087921 254.325646 -3.876590 0.315483 0.129133 -0.094233 2401.952163 -2946.450232 44.911630 0.373497 0.468831 -0.335730
2.830000 68.397919 232.437903 -3.546287 0.303937 0.131050 -0.094126 2203.478830 -3097.879532 47.264106 0.384504 0.467760 -0.335787
2.840000 65.000513 213.745819 -3.253129 0.292639 0.133902 -0.094048 1997.533363 -3234.805165 49.232483 0.395286 0.465821 -0.335786
2.850000 60.436802 196.167066 -2.981214 0.281502 0.137449 -0.093990 1782.519131 -3358.318756 51.037444 0.405923 0.462828 -0.335557
2.860000 54.138068 178.524926 -2.717372 0.270732 0.142002 -0.093931 1563.365737 -3466.054139 52.757670 0.416053 0.459195 -0.335638
2.870000 47.799240 162.188866 -2.465246 0.260352 0.147266 -0.093915 1336.974769 -3559.380955 54.102054 0.425836 0.454576 -0.335724
2.880000 40.288978 146.533283 -2.230060 0.250390 0.153484 -0.093998 1103.673412 -3638.211767 55.369187 0.435138 0.449052 -0.335781
2.890000 32.189704 133.480206 -2.036505 0.240915 0.160252 -0.094066 865.939464 -3701.848023 56.479012 0.443925 0.442621 -0.335824
2.900000 26.852669 123.126432 -1.871242 0.231919 0.168025 -0.094083 621.038340 -3750.874058 57.004749 0.452177 0.435400 -0.335857
2.910000 23.785000 116.021571 -1.761766 0.223477 0.176199 -0.094109 371.990168 -3783.933202 57.458312 0.459871 0.427347 -0.336017
2.920000 21.787949 112.823408 -1.712977 0.215838 0.185077 -0.094218 119.464195 -3800.445097 57.701469 0.466914 0.418534 -0.336087
2.930000 20.295762 112.186603 -1.696524 0.208928 0.194385 -0.094242 -134.357438 -3800.041377 57.465531 0.473362 0.409187 -0.336219
2.940000 18.928595 110.854848 -1.683107 0.202789 0.204120 -0.094250 -389.066294 -3782.719464 57.432971 0.479013 0.399235 -0.336181
2.950000 17.093121 107.598996 -1.631560 0.197635 0.214389 -0.094387 -648.141783 -3747.049456 56.817790 0.484281 0.388626 -0.336183
2.960000 12.927311 101.652027 -1.543173 0.193280 0.225086 -0.094373 -907.914115 -3692.647614 56.057848 0.488836 0.377605 -0.336330
2.970000 7.842421 94.314482 -1.425594 0.189806 0.236153 -0.094199 -1168.046767 -3618.706956 54.697914 0.492498 0.366013 -0.336917
2.980000 1.100872 85.646718 -1.288771 0.187173 0.247303 -0.094210 -1423.931461 -3525.847228 53.055274 0.495863 0.354303 -0.336291
2.990000 -7.510772 76.525148 -1.155191 0.185476 0.258728 -0.094171 -1677.179962 -3412.625818 51.515544 0.497843 0.342070 -0.336130
3.000000 -14.507756 69.379147 -1.042622 0.184590 0.270345 -0.094180 -1926.493853 -3278.171486 49.263981 0.499102 0.329635 -0.335959
3.010000 -20.500454 64.949586 -0.974956 0.184582 0.282079 -0.094213 -2170.130813 -3121.893354 46.862649 0.499601 0.316956 -0.335828
3.020000 -24.343418 63.524144 -0.952352 0.185341 0.293705 -0.094204 -2402.709112 -2946.757005 44.177672 0.499342 0.304289 -0.335873
3.030000 -28.497562 64.199929 -0.963770 0.186942 0.305376 -0.094222 -2624.802845 -2751.143780 41.300188 0.498140 0.291615 -0.336227
